# xmcd CD database file
#
# Track frame offsets:
#	150
#	23398
#	38607
#	53186
#	67713
#	79428
#	92285
#	103571
#	129901
#	142536
#
# Disc length: 2185 seconds
#
# Revision: 0
# Processed by: cddbd v1.4PL0 Copyright (c) Steve Scherf et al.
# Submitted via: CDex 1.40Release
#
DISCID=6408870a
DTITLE=Mulehead - Never Again
DYEAR=1998
DGENRE=Country
TTITLE0=Lord's Trustee
TTITLE1=Baby Brother
TTITLE2=Gabriel's Song
TTITLE3=Lonely
TTITLE4=The Way I Feel Tonight
TTITLE5=Kudzu
TTITLE6=This Morning
TTITLE7=Josephine
TTITLE8=King of the Minimum Wage
TTITLE9=Pray for Me
EXTD=YEAR: 1998 ID3G: 2
EXTT0=
EXTT1=
EXTT2=
EXTT3=
EXTT4=
EXTT5=
EXTT6=
EXTT7=
EXTT8=
EXTT9=
PLAYORDER=
